<svg width="49" height="49" viewBox="0 0 49 49" fill="none" xmlns="http://www.w3.org/2000/svg">
<rect x="0.5" y="0.5" width="48" height="48" stroke="white"/>
<path d="M30.0781 26.5H26.5625V37H21.875V26.5H18.0781V22.1406H21.875V18.8594C21.875 17.6094 22.1094 16.5469 22.5781 15.6719C23.0469 14.7969 23.7031 14.1406 24.5469 13.7031C25.4219 13.2344 26.4219 13 27.5469 13C28.0469 13 28.5781 13.0312 29.1406 13.0938C29.7031 13.125 30.1406 13.1719 30.4531 13.2344L30.9219 13.2812V16.9844H29.0469C28.1719 16.9844 27.5312 17.2188 27.125 17.6875C26.75 18.125 26.5625 18.6719 26.5625 19.3281V22.1406H30.7344L30.0781 26.5Z" fill="white"/>
</svg>
