<svg width="49" height="49" viewBox="0 0 49 49" fill="none" xmlns="http://www.w3.org/2000/svg">
<rect x="0.5" y="0.5" width="48" height="48" stroke="white"/>
<path d="M20.7031 21.2031C21.7656 20.1406 23.0469 19.6094 24.5469 19.6094C26.0469 19.6094 27.3125 20.1406 28.3438 21.2031C29.4062 22.2344 29.9375 23.5 29.9375 25C29.9375 26.5 29.4062 27.7812 28.3438 28.8438C27.3125 29.875 26.0469 30.3906 24.5469 30.3906C23.0469 30.3906 21.7656 29.875 20.7031 28.8438C19.6719 27.7812 19.1562 26.5 19.1562 25C19.1562 23.5 19.6719 22.2344 20.7031 21.2031ZM22.0625 27.4844C22.75 28.1719 23.5781 28.5156 24.5469 28.5156C25.5156 28.5156 26.3438 28.1719 27.0312 27.4844C27.7188 26.7969 28.0625 25.9688 28.0625 25C28.0625 24.0312 27.7188 23.2031 27.0312 22.5156C26.3438 21.8281 25.5156 21.4844 24.5469 21.4844C23.5781 21.4844 22.75 21.8281 22.0625 22.5156C21.375 23.2031 21.0312 24.0312 21.0312 25C21.0312 25.9688 21.375 26.7969 22.0625 27.4844ZM31.0156 18.5312C31.2656 18.75 31.3906 19.0312 31.3906 19.375C31.3906 19.7188 31.2656 20.0156 31.0156 20.2656C30.7969 20.5156 30.5156 20.6406 30.1719 20.6406C29.8281 20.6406 29.5312 20.5156 29.2812 20.2656C29.0312 20.0156 28.9062 19.7188 28.9062 19.375C28.9062 19.0312 29.0312 18.75 29.2812 18.5312C29.5312 18.2812 29.8281 18.1562 30.1719 18.1562C30.5156 18.1562 30.7969 18.2812 31.0156 18.5312ZM35 20.6875C35.0312 21.5312 35.0469 22.9688 35.0469 25C35.0469 27.0312 35.0312 28.4688 35 29.3125C34.9062 31.2188 34.3281 32.7031 33.2656 33.7656C32.2344 34.7969 30.7656 35.3438 28.8594 35.4062C28.0156 35.4688 26.5781 35.5 24.5469 35.5C22.5156 35.5 21.0781 35.4688 20.2344 35.4062C18.3281 35.3125 16.8594 34.75 15.8281 33.7188C15.4219 33.3438 15.0938 32.9062 14.8438 32.4062C14.5938 31.9062 14.4062 31.4219 14.2812 30.9531C14.1875 30.4844 14.1406 29.9375 14.1406 29.3125C14.0781 28.4688 14.0469 27.0312 14.0469 25C14.0469 22.9688 14.0781 21.5156 14.1406 20.6406C14.2344 18.7656 14.7969 17.3125 15.8281 16.2812C16.8594 15.2188 18.3281 14.6406 20.2344 14.5469C21.0781 14.5156 22.5156 14.5 24.5469 14.5C26.5781 14.5 28.0156 14.5156 28.8594 14.5469C30.7656 14.6406 32.2344 15.2188 33.2656 16.2812C34.3281 17.3125 34.9062 18.7812 35 20.6875ZM32.75 31.1875C32.8438 30.9375 32.9219 30.625 32.9844 30.25C33.0469 29.8438 33.0938 29.375 33.125 28.8438C33.1562 28.2812 33.1719 27.8281 33.1719 27.4844C33.1719 27.1406 33.1719 26.6562 33.1719 26.0312C33.1719 25.4062 33.1719 25.0625 33.1719 25C33.1719 24.9062 33.1719 24.5625 33.1719 23.9688C33.1719 23.3438 33.1719 22.8594 33.1719 22.5156C33.1719 22.1719 33.1562 21.7344 33.125 21.2031C33.0938 20.6406 33.0469 20.1719 32.9844 19.7969C32.9219 19.3906 32.8438 19.0625 32.75 18.8125C32.375 17.8438 31.7031 17.1719 30.7344 16.7969C30.4844 16.7031 30.1562 16.625 29.75 16.5625C29.375 16.5 28.9062 16.4531 28.3438 16.4219C27.8125 16.3906 27.375 16.375 27.0312 16.375C26.7188 16.375 26.2344 16.375 25.5781 16.375C24.9531 16.375 24.6094 16.375 24.5469 16.375C24.4844 16.375 24.1406 16.375 23.5156 16.375C22.8906 16.375 22.4062 16.375 22.0625 16.375C21.7188 16.375 21.2656 16.3906 20.7031 16.4219C20.1719 16.4531 19.7031 16.5 19.2969 16.5625C18.9219 16.625 18.6094 16.7031 18.3594 16.7969C17.3906 17.1719 16.7188 17.8438 16.3438 18.8125C16.25 19.0625 16.1719 19.3906 16.1094 19.7969C16.0469 20.1719 16 20.6406 15.9688 21.2031C15.9375 21.7344 15.9219 22.1719 15.9219 22.5156C15.9219 22.8281 15.9219 23.3125 15.9219 23.9688C15.9219 24.5938 15.9219 24.9375 15.9219 25C15.9219 25.125 15.9219 25.4219 15.9219 25.8906C15.9219 26.3281 15.9219 26.7031 15.9219 27.0156C15.9219 27.2969 15.9219 27.6719 15.9219 28.1406C15.9531 28.6094 15.9844 29.0156 16.0156 29.3594C16.0469 29.6719 16.0938 30 16.1562 30.3438C16.2188 30.6875 16.2812 30.9688 16.3438 31.1875C16.75 32.1562 17.4219 32.8281 18.3594 33.2031C18.6094 33.2969 18.9219 33.375 19.2969 33.4375C19.7031 33.5 20.1719 33.5469 20.7031 33.5781C21.2656 33.6094 21.7031 33.625 22.0156 33.625C22.3594 33.625 22.8438 33.625 23.4688 33.625C24.125 33.625 24.4844 33.625 24.5469 33.625C24.6406 33.625 24.9844 33.625 25.5781 33.625C26.2031 33.625 26.6875 33.625 27.0312 33.625C27.375 33.625 27.8125 33.6094 28.3438 33.5781C28.9062 33.5469 29.375 33.5 29.75 33.4375C30.1562 33.375 30.4844 33.2969 30.7344 33.2031C31.7031 32.7969 32.375 32.125 32.75 31.1875Z" fill="white"/>
</svg>
