<svg width="49" height="49" viewBox="0 0 49 49" fill="none" xmlns="http://www.w3.org/2000/svg">
<rect x="0.5" y="0.5" width="48" height="48" stroke="white"/>
<path d="M18.6875 34H14.3281V19.9844H18.6875V34ZM16.5312 18.0625C15.8438 18.0625 15.25 17.8125 14.75 17.3125C14.25 16.8125 14 16.2188 14 15.5312C14 14.8438 14.25 14.25 14.75 13.75C15.25 13.25 15.8438 13 16.5312 13C16.9688 13 17.375 13.1094 17.75 13.3281C18.1562 13.5469 18.4688 13.8594 18.6875 14.2656C18.9375 14.6406 19.0625 15.0625 19.0625 15.5312C19.0625 15.9688 18.9375 16.3906 18.6875 16.7969C18.4688 17.1719 18.1562 17.4844 17.75 17.7344C17.375 17.9531 16.9688 18.0625 16.5312 18.0625ZM35 34H30.6406V27.1562C30.6406 26.625 30.625 26.2031 30.5938 25.8906C30.5625 25.5469 30.4844 25.1719 30.3594 24.7656C30.2344 24.3281 30 24 29.6562 23.7812C29.3438 23.5625 28.9219 23.4531 28.3906 23.4531C27.3594 23.4531 26.6562 23.7812 26.2812 24.4375C25.9375 25.0938 25.7656 25.9688 25.7656 27.0625V34H21.4062V19.9844H25.625V21.9062H25.6719C25.9844 21.2812 26.5 20.75 27.2188 20.3125C27.9375 19.8438 28.7969 19.6094 29.7969 19.6094C30.8594 19.6094 31.7344 19.7812 32.4219 20.125C33.1406 20.4375 33.6719 20.9219 34.0156 21.5781C34.3906 22.2031 34.6406 22.8906 34.7656 23.6406C34.9219 24.3906 35 25.2812 35 26.3125V34Z" fill="white"/>
</svg>
