<svg width="49" height="49" viewBox="0 0 49 49" fill="none" xmlns="http://www.w3.org/2000/svg">
<rect x="0.5" y="0.5" width="48" height="48" stroke="white"/>
<path d="M34.0156 20.125C34.0469 20.25 34.0625 20.4531 34.0625 20.7344C34.0625 22.3906 33.75 24.0469 33.125 25.7031C32.5 27.3281 31.6094 28.8281 30.4531 30.2031C29.3281 31.5469 27.8594 32.6406 26.0469 33.4844C24.2344 34.3281 22.2344 34.75 20.0469 34.75C17.2969 34.75 14.7812 34.0156 12.5 32.5469C12.8438 32.5781 13.2344 32.5938 13.6719 32.5938C15.9531 32.5938 18 31.8906 19.8125 30.4844C18.7188 30.4844 17.75 30.1719 16.9062 29.5469C16.0938 28.8906 15.5312 28.0781 15.2188 27.1094C15.5312 27.1406 15.8281 27.1562 16.1094 27.1562C16.5469 27.1562 16.9844 27.1094 17.4219 27.0156C16.6719 26.8594 16 26.5469 15.4062 26.0781C14.8125 25.6094 14.3438 25.0469 14 24.3906C13.6562 23.7031 13.4844 22.9688 13.4844 22.1875V22.0938C14.1719 22.5 14.9062 22.7188 15.6875 22.75C14.2188 21.75 13.4844 20.375 13.4844 18.625C13.4844 17.75 13.7188 16.9219 14.1875 16.1406C15.4062 17.6719 16.8906 18.8906 18.6406 19.7969C20.4219 20.7031 22.3125 21.2031 24.3125 21.2969C24.25 20.9219 24.2188 20.5469 24.2188 20.1719C24.2188 18.8281 24.6875 17.6719 25.625 16.7031C26.5938 15.7344 27.75 15.25 29.0938 15.25C30.5312 15.25 31.7344 15.7656 32.7031 16.7969C33.8281 16.5781 34.875 16.1875 35.8438 15.625C35.4688 16.7812 34.75 17.6875 33.6875 18.3438C34.625 18.2188 35.5625 17.9531 36.5 17.5469C35.8125 18.5469 34.9844 19.4062 34.0156 20.125Z" fill="white"/>
</svg>
