<svg width="49" height="49" viewBox="0 0 49 49" fill="none" xmlns="http://www.w3.org/2000/svg">
<rect x="0.5" y="0.5" width="48" height="48" stroke="white"/>
<path d="M36.5469 18.5312C36.4531 19 36.0781 19.7656 35.4219 20.8281C34.7969 21.8906 34.2188 22.8281 33.6875 23.6406C33.1562 24.4219 32.875 24.8281 32.8438 24.8594C32.6562 25.1406 32.5625 25.3438 32.5625 25.4688C32.5625 25.5938 32.6562 25.8125 32.8438 26.125C32.8438 26.125 32.9375 26.2344 33.125 26.4531C33.3438 26.6719 33.5938 26.9219 33.875 27.2031C34.1562 27.4844 34.4688 27.8125 34.8125 28.1875C35.1562 28.5625 35.4688 28.9375 35.75 29.3125C36.0625 29.6562 36.3281 30.0156 36.5469 30.3906C36.7969 30.7656 36.9688 31.0781 37.0625 31.3281C37.2812 32.1094 36.9688 32.5 36.125 32.5H33.3594C33.1406 32.5 32.9531 32.4688 32.7969 32.4062C32.6406 32.3438 32.4688 32.2344 32.2812 32.0781C32.0938 31.9219 31.9219 31.75 31.7656 31.5625C31.6094 31.375 31.375 31.1094 31.0625 30.7656C30.75 30.4219 30.4375 30.0938 30.125 29.7812C28.875 28.5938 27.9531 28 27.3594 28C26.9844 28 26.7656 28.1094 26.7031 28.3281C26.6406 28.5469 26.6094 29.1719 26.6094 30.2031C26.6406 30.7031 26.6562 31.1094 26.6562 31.4219C26.6562 31.7969 26.5312 32.0781 26.2812 32.2656C26.0312 32.4219 25.4844 32.5 24.6406 32.5C23.1719 32.5 21.6875 32.0625 20.1875 31.1875C18.6875 30.3125 17.375 29.0625 16.25 27.4375C15.1875 26 14.2969 24.5781 13.5781 23.1719C12.8906 21.7344 12.4375 20.6406 12.2188 19.8906C12 19.1406 11.8906 18.6094 11.8906 18.2969C11.8906 17.7656 12.2031 17.5 12.8281 17.5H15.5938C15.9375 17.5 16.1875 17.5781 16.3438 17.7344C16.5312 17.8906 16.6875 18.1719 16.8125 18.5781C17.4688 20.4844 18.2656 22.1875 19.2031 23.6875C20.1719 25.1875 20.9062 25.9375 21.4062 25.9375C21.5938 25.9375 21.7188 25.875 21.7812 25.75C21.875 25.5938 21.9219 25.3125 21.9219 24.9062V20.8281C21.8906 20.3906 21.8125 20.0156 21.6875 19.7031C21.5625 19.3906 21.4375 19.1719 21.3125 19.0469C21.1875 18.8906 21.0625 18.7344 20.9375 18.5781C20.8438 18.4219 20.7969 18.2812 20.7969 18.1562C20.7969 18.0312 20.8281 17.9219 20.8906 17.8281C20.9531 17.7344 21.0312 17.6562 21.125 17.5938C21.25 17.5312 21.375 17.5 21.5 17.5H25.8594C26.3594 17.5 26.6094 17.8438 26.6094 18.5312V23.9688C26.6094 24.5 26.75 24.7656 27.0312 24.7656C27.3438 24.7656 27.7812 24.4844 28.3438 23.9219C28.9375 23.2656 29.5156 22.4688 30.0781 21.5312C30.6406 20.5938 31.0625 19.8125 31.3438 19.1875L31.7656 18.2969C31.9844 17.7656 32.375 17.5 32.9375 17.5H35.7031C36.4531 17.5 36.7344 17.8438 36.5469 18.5312Z" fill="white"/>
</svg>
