<svg width="49" height="49" viewBox="0 0 49 49" fill="none" xmlns="http://www.w3.org/2000/svg">
<rect x="0.5" y="0.5" width="48" height="48" stroke="white"/>
<path d="M31.8594 17.5469C33.9531 19.6406 35 22.0938 35 24.9062C35 27.7812 33.9688 30.2344 31.9062 32.2656C29.8438 34.2969 27.375 35.3125 24.5 35.3125C22.7188 35.3125 21.0625 34.8906 19.5312 34.0469L14 35.5L15.5 30.1094C14.5625 28.5156 14.0938 26.7812 14.0938 24.9062C14.0938 22.0312 15.1094 19.5781 17.1406 17.5469C19.1719 15.5156 21.625 14.5 24.5 14.5C27.375 14.5 29.8281 15.5156 31.8594 17.5469ZM24.5 33.5781C26.875 33.5781 28.9219 32.7344 30.6406 31.0469C32.3594 29.3281 33.2188 27.2812 33.2188 24.9062C33.25 22.5938 32.375 20.5625 30.5938 18.8125C28.9062 17.125 26.875 16.2812 24.5 16.2812C22.125 16.2812 20.0781 17.125 18.3594 18.8125C16.6719 20.5 15.8281 22.5312 15.8281 24.9062C15.8281 26.5625 16.2812 28.0938 17.1875 29.5L17.375 29.8281L16.4844 33.0156L19.7656 32.1719L20.0938 32.3594C21.4375 33.1719 22.9062 33.5781 24.5 33.5781ZM29.2344 27.0625C29.5469 27.2188 29.7188 27.3281 29.75 27.3906C29.8438 27.5781 29.7812 28 29.5625 28.6562C29.4688 28.9062 29.2188 29.1719 28.8125 29.4531C28.4375 29.7031 28.1094 29.8438 27.8281 29.875C27.0156 30 25.9688 29.7812 24.6875 29.2188C23.1562 28.5625 21.6875 27.25 20.2812 25.2812C19.5625 24.3125 19.2031 23.4219 19.2031 22.6094C19.2031 21.8281 19.5 21.0938 20.0938 20.4062C20.3125 20.2188 20.5469 20.125 20.7969 20.125C21.0469 20.125 21.2188 20.125 21.3125 20.125C21.5938 20.125 21.7812 20.2656 21.875 20.5469C22.4062 21.8281 22.6719 22.4688 22.6719 22.4688C22.7656 22.6562 22.7812 22.8125 22.7188 22.9375C22.5938 23.2188 22.4375 23.4688 22.25 23.6875C22.0625 23.875 21.9531 23.9844 21.9219 24.0156C21.8906 24.0469 21.9062 24.1562 21.9688 24.3438C22.4062 25.1562 22.875 25.7656 23.375 26.1719C23.9062 26.5781 24.6094 27 25.4844 27.4375C25.7344 27.5625 25.9219 27.5469 26.0469 27.3906C26.4531 26.9219 26.7344 26.5781 26.8906 26.3594C27.0156 26.1719 27.2031 26.125 27.4531 26.2188C27.7031 26.3125 28.2969 26.5938 29.2344 27.0625Z" fill="white"/>
</svg>
