<svg width="49" height="49" viewBox="0 0 49 49" fill="none" xmlns="http://www.w3.org/2000/svg">
<rect x="0.5" y="0.5" width="48" height="48" stroke="white"/>
<path d="M36.7812 18.8125C36.875 19.1875 36.9531 19.6562 37.0156 20.2188C37.1094 20.7812 37.1719 21.3438 37.2031 21.9062C37.2344 22.4375 37.25 22.9375 37.25 23.4062C37.2812 23.875 37.2969 24.2656 37.2969 24.5781V25C37.2969 27.8125 37.125 29.8906 36.7812 31.2344C36.625 31.7656 36.3438 32.2344 35.9375 32.6406C35.5312 33.0469 35.0469 33.3281 34.4844 33.4844C33.8906 33.6406 32.7656 33.7656 31.1094 33.8594C29.4531 33.9219 27.9375 33.9688 26.5625 34H24.5C19.1562 34 15.8281 33.8281 14.5156 33.4844C13.2969 33.1406 12.5312 32.3906 12.2188 31.2344C12.0625 30.6406 11.9375 29.8281 11.8438 28.7969C11.7812 27.7344 11.7344 26.8438 11.7031 26.125V25C11.7031 22.2188 11.875 20.1562 12.2188 18.8125C12.375 18.25 12.6562 17.7656 13.0625 17.3594C13.4688 16.9531 13.9531 16.6719 14.5156 16.5156C15.1094 16.3594 16.2344 16.25 17.8906 16.1875C19.5469 16.0938 21.0625 16.0312 22.4375 16H24.5C29.8438 16 33.1719 16.1719 34.4844 16.5156C35.0469 16.6719 35.5312 16.9531 35.9375 17.3594C36.3438 17.7656 36.625 18.25 36.7812 18.8125ZM21.875 28.8438L28.5781 25L21.875 21.2031V28.8438Z" fill="white"/>
</svg>
